Coordinates
version=1
nRows=17
nColumns=24
inDegrees=yes

Units are S.I. units (second, meters, Newtons, ...)
Angles are in degrees.

endheader
time	pelvis_tilt	pelvis_list	pelvis_rotation	pelvis_tx	pelvis_ty	pelvis_tz	hip_flexion_r	hip_adduction_r	hip_rotation_r	knee_angle_r	ankle_angle_r	subtalar_angle_r	mtp_angle_r	hip_flexion_l	hip_adduction_l	hip_rotation_l	knee_angle_l	ankle_angle_l	subtalar_angle_l	mtp_angle_l	lumbar_extension	lumbar_bending	lumbar_rotation
      0.91616667	      1.17853612	     -0.19732897	      0.27367047	     -0.17522767	      0.97774823	      0.30789224	    -12.69344822	      3.85537050	     -9.09217416	    -13.26013577	     17.13620760	      2.80793026	     -1.11258247	     23.18606254	      2.25960612	      0.53092687	     -8.89621954	     -0.44779131	     -6.95852873	     -2.90497877	     -3.53022497	      3.32647190	      7.42513731
      0.92033333	      1.13460525	     -0.10565388	      0.23514126	     -0.16917513	      0.97723559	      0.30755877	    -12.62255145	      3.67002891	     -9.00139155	    -14.06243128	     17.18860528	      2.71080414	     -1.09087409	     23.05850520	      2.44582715	      0.68070299	     -8.86880274	     -0.75174174	     -7.06896988	     -2.71285214	     -3.41982739	      3.23102424	      7.43839099
      0.92450000	      1.07187252	     -0.01071268	      0.20216567	     -0.16312742	      0.97673758	      0.30720859	    -12.49416865	      3.47874780	     -8.89994859	    -14.93138750	     17.20766641	      2.59465374	     -1.04908670	     22.96164831	      2.64002178	      0.86514442	     -8.92862244	     -1.08183373	     -7.24718643	     -2.49546326	     -3.29402241	      3.13623732	      7.45103712
      0.92866667	      1.02339593	      0.09519239	      0.18541093	     -0.15707310	      0.97630037	      0.30683087	    -12.34975945	      3.27298027	     -8.82688960	    -15.85565148	     17.15130765	      2.47935821	     -0.94576493	     22.86010132	      2.85488031	      1.09114751	     -9.07050288	     -1.43963845	     -7.55119181	     -2.12483502	     -3.18952234	      3.02118830	      7.46272208
      0.93283333	      1.00513720	      0.23477937	      0.16210294	     -0.15092787	      0.97597468	      0.30649119	    -12.22807861	      3.03397408	     -8.71467906	    -16.80003576	     17.03960532	      2.30741671	     -0.90837612	     22.72496681	      3.08659138	      1.21149109	     -9.27307905	     -1.75147754	     -7.58382990	     -2.02522994	     -3.10194754	      2.85094109	      7.43467077
      0.93700000	      0.89676743	      0.32803226	      0.13457987	     -0.14488310	      0.97555823	      0.30609979	    -11.92781393	      2.83115203	     -8.58867078	    -17.89093850	     16.98752531	      2.16103448	     -0.76792836	     22.67494711	      3.28961225	      1.52755259	     -9.48258544	     -2.16776806	     -8.01319509	     -1.75338632	     -2.91611007	      2.77316553	      7.43708745
      0.94116667	      0.86901196	      0.47575459	      0.12738452	     -0.13873962	      0.97528812	      0.30569325	    -11.70683518	      2.56125255	     -8.55539316	    -18.98545984	     16.70294495	      2.08131198	      1.57545541	     22.55059026	      3.54306753	      1.73541890	     -9.75926369	     -2.60961813	     -8.34880965	      1.84560184	     -2.81691117	      2.59928293	      7.39604589
      0.94533333	      0.85423720	      0.63174314	      0.12351192	     -0.13259002	      0.97508571	      0.30531358	    -11.47578168	      2.29677567	     -8.44016711	    -20.12269645	     16.44143699	      1.84417124	      1.59832230	     22.43570838	      3.79723571	      1.88940354	    -10.12710916	     -2.90662253	     -8.50744114	      1.84656365	     -2.74246057	      2.40780705	      7.36845378
      0.94950000	      0.73459769	      0.74689078	      0.10752333	     -0.12652065	      0.97478277	      0.30488736	    -11.04638470	      2.05742279	     -8.31831543	    -21.40784407	     16.18715189	      1.65359413	      1.69583696	     22.40735946	      4.02188955	      2.21174905	    -10.45308052	     -3.32365739	     -8.98246106	      1.86043937	     -2.53356516	      2.30258767	      7.33868534
      0.95366667	      0.67380916	      0.89637601	      0.10939621	     -0.12041135	      0.97459289	      0.30444147	    -10.66099178	      1.77768505	     -8.23888949	    -22.71597328	     15.80049109	      1.49324243	      1.84125192	     22.33477866	      4.28031048	      2.46465126	    -10.84745791	     -3.67443184	     -9.38378431	      1.88393383	     -2.39993257	      2.13929768	      7.29442363
      0.95783333	      0.61878099	      1.05825208	      0.11501365	     -0.11430053	      0.97444715	      0.30399561	    -10.23925080	      1.47797039	     -8.17506007	    -24.09055631	     15.33165806	      1.35092917	      2.02388113	     22.25704194	      4.54832281	      2.70115413	    -11.25952223	     -3.99502837	     -9.76752381	      1.91067992	     -2.27178884	      1.95565091	      7.23754458
      0.96200000	      0.55306763	      1.22357649	      0.12813750	     -0.10821673	      0.97430578	      0.30351292	     -9.76082959	      1.16511893	     -8.12494099	    -25.53256738	     14.78946863	      1.22914506	      2.27369986	     22.20696947	      4.82313458	      2.93340958	    -11.71649112	     -4.28590629	    -10.19685303	      1.94068175	     -2.13786066	      1.78067221	      7.17493779
      0.96616667	      0.48098240	      1.37614558	      0.15233469	     -0.10217204	      0.97416208	      0.30302204	     -9.22739180	      0.85872314	     -8.09585953	    -27.04583654	     14.18347229	      1.14120994	      2.70278273	     22.18222477	      5.08649636	      3.16222152	    -12.21872867	     -4.54158545	    -10.70400261	      1.98063385	     -2.00214816	      1.59347993	      7.09921872
      0.97033333	      0.52932389	      1.60504710	      0.20691267	     -0.09602059	      0.97423291	      0.30243068	     -8.82278279	      0.43831139	     -8.21228785	    -28.53642042	     13.21410530	      1.12901171	      8.69837565	     21.97677914	      5.44103384	      3.42393048	    -12.64247977	     -4.71935692	    -11.11307518	      2.38317719	     -1.99660707	      1.34310957	      7.01283575
      0.97450000	      0.43852191	      1.79856462	      0.19335401	     -0.08999937	      0.97415364	      0.30199113	     -8.17916881	      0.07683168	     -8.09849225	    -30.17537210	     12.48839978	      0.90002019	      8.76575890	     21.96969006	      5.71626954	      3.51579615	    -13.15085540	     -4.88229137	    -11.39688652	      2.37482313	     -1.83261711	      1.13195485	      6.92775816
      0.97866667	      0.38410657	      1.98221465	      0.22333310	     -0.08401237	      0.97411207	      0.30147937	     -7.54655683	     -0.28717014	     -8.08142007	    -31.84302140	     11.60237887	      0.80025377	      8.92036860	     21.92856102	      6.00232335	      3.68294827	    -13.67802340	     -4.96709539	    -11.79912425	      2.35711902	     -1.72152089	      0.91326613	      6.84052549
      0.98283333	      0.35206895	      2.21152006	      0.24526051	     -0.07799076	      0.97415669	      0.30096572	     -6.91044233	     -0.71285770	     -8.06796833	    -33.54098761	     10.59908349	      0.69329011	      9.07172160	     21.83128258	      6.32722224	      3.82321567	    -14.15044803	     -4.99029072	    -12.07462775	      2.33884755	     -1.62719426	      0.66342772	      6.74766046
